Patient4_TMGait_0pt7_02_right_51_EMG.mot
version=1
nRows=37
nColumns=33
inDegrees=no
endheader
time	1LAddLong	2LGlutMax	3LGlutMed	4LIliopsoas	5LSemiMemb	6LBicFemLong	7LRecFem	8LVastMed	9LVastLat	10LGasMed	11LTibAnt	12lTibPost	13LPeroneusLong	14LSol	15LExtDigLong	16LFlexDigLong	17RAddLong	18RGlutMax	19RGlutMed	20RIliopsoas	21RSemiMemb	22RBicFemLong	23RRecFem	24RVastMed	25RVastLat	26RGasMed	27RTibAnt	28RTibPost	29RPeroneusLong	30RSol	31RExtDigLong	32RFlexDigLong
58.267	-0.001373	-0.17899	0.10574	0.034943	0.014496	-0.006714	0.24414	0.01709	0.090027	0.00473	0.34943	0.000763	-0.11841	0.055695	0.037384	-0.003052	-0.009766	-0.64011	0.15045	-0.053711	-0.006714	0.38925	-0.62836	-0.081482	-0.63431	-0.11292	-0.24582	-0.013885	-0.44388	-0.27222	-0.011902	-0.000153
58.268	-0.010223	-0.19684	0.15243	0.046692	0.013123	0.004272	0.24368	0.016022	0.077515	-0.022125	0.069275	-0.009613	-0.048828	0.10086	-0.097504	-0.002594	-0.029907	-0.5658	-0.25604	0.028534	0.030365	0.31006	-0.58624	0.1355	-0.50125	-0.11826	-0.14069	0.031586	-0.3595	-0.59662	-0.012207	-0.002594
58.269	-0.005646	-0.16312	0.15884	0.049286	0.011444	-0.00824	0.20844	0.024261	0.050659	-0.033569	-0.25711	-0.006409	-0.04364	0.11993	-0.4155	-0.009003	-0.032043	-0.4451	-0.054169	0.019379	-0.13596	0.37323	-0.26428	0.069885	-0.44205	-0.11154	-0.055237	-0.21454	-0.031433	-0.76248	-0.008087	-0.00824
58.27	-0.016327	-0.25375	0.13992	0.028992	0.014648	-0.015106	0.1178	0.028839	0.023041	-0.02243	0.019531	-0.021973	-0.040894	0.073547	0.064087	-0.00885	-0.0177	-0.29251	-0.10666	-0.016632	-0.26825	0.36255	-0.17777	-0.023956	-0.34073	0.001068	-0.00885	-0.26276	0.336	-0.27634	-0.013885	-0.011139
58.271	-0.010986	-0.23575	0.12863	-0.000305	0.023499	0.00824	0.21011	0.033264	0.002289	-0.069427	-0.059357	-0.006104	0.016937	0.10803	0.52277	-0.002136	0.018921	-0.13489	-0.28534	-0.039673	-0.31693	0.22415	0.034637	-0.1062	-0.29663	0.058136	-0.013123	0.018463	0.14954	-0.012665	-0.016174	-0.018616
58.272	-0.017242	-0.25375	0.1561	-0.015717	0.014191	0.012512	0.26962	0.031128	-0.034943	-0.089874	-0.040436	-0.010986	-0.05722	0.074463	0.16357	-0.003357	0.033875	-0.027771	0.42877	-0.12466	-0.091858	0.2478	0.1268	-0.11078	-0.22995	0.053711	-0.046844	0.063171	0.2919	0.078125	-0.014648	-0.021973
58.273	-0.018311	-0.27435	0.15533	-0.036469	0.011139	0.005798	0.24643	0.035706	-0.047607	-0.10193	-0.008392	-0.004883	-0.0737	0.10407	-0.21347	-0.00824	0.050507	0.031891	0.41367	-0.1149	0.073547	0.071716	0.18494	-0.13641	-0.24521	0.021057	-0.04776	-0.13687	0.29266	-0.14389	-0.010681	-0.016174
58.274	-0.032654	-0.36346	0.19592	-0.041962	0.007782	-0.000916	0.16647	0.031433	-0.057831	-0.11047	-0.01236	-0.004578	-0.080566	0.095062	-0.40573	-0.012512	0.064087	-0.21881	-0.23789	-0.084534	0.073242	-0.30136	0.18814	-0.13825	-0.20096	-0.008087	-0.028381	-0.25528	0.20096	0.18463	-0.018005	-0.012512
58.275	-0.012512	-0.44571	0.26291	-0.008392	0.003052	0.00061	0.096893	0.035858	-0.073547	-0.092468	0.072784	-0.008087	-0.13199	0.10696	-0.1944	-0.008698	0.035553	-0.36972	-0.26489	-0.098114	0.10147	-0.47577	0.050507	-0.21484	0.042725	0.012054	-0.016785	0.27313	0.086212	0.20783	-0.010529	-0.010681
58.276	-0.012817	-0.40024	0.29022	0.005951	0.001526	0.009308	0.10193	0.035858	-0.070801	-0.094147	-0.13046	-0.001984	-0.15106	0.006714	-0.16785	-0.00412	0.030823	-0.32288	-0.49271	-0.059814	0.066681	-0.31815	0.046234	-0.088501	0.13672	-0.005646	-0.013885	0.13702	0.084839	0.089264	-0.017853	-0.021362
58.277	-0.022125	-0.4158	0.25238	0.001678	0.013885	0.028687	0.13473	0.032349	-0.070038	-0.12146	-0.16281	-0.003052	-0.050812	-0.052185	-0.27313	-0.007935	0.061493	-0.32044	-0.95047	0.02533	0.05722	-0.21713	0.21866	0.07019	0.084686	-0.002899	0.031281	0.091858	-0.097504	-0.40054	-0.015717	-0.017395
58.278	-0.010376	-0.36835	0.24368	-0.000153	0.005035	0.023956	0.22461	0.032806	-0.057373	-0.11078	-0.13977	-0.00946	-0.043945	-0.048523	-0.20523	-0.012207	0.1413	-0.38086	-1.7273	0.11643	-0.054321	-0.34744	0.41885	-0.033875	-0.074463	0.006409	0.073547	0.096588	-0.37735	-0.34286	-0.019226	-0.016022
58.279	-0.00061	-0.40131	0.28839	-0.035706	-0.002441	0.004578	0.30502	0.024109	-0.044098	-0.11459	-0.077667	-0.015106	-0.048981	-0.049744	-0.15228	-0.008392	0.14587	-0.5368	-2.216	0.083008	-0.16632	-0.31769	0.52963	-0.019684	-0.13763	0.009613	0.083618	0.068054	-0.26291	0.7431	-0.026245	-0.009155
58.28	0.006409	-0.42252	0.26916	-0.056152	0.007477	0.004272	0.30868	0.011597	-0.03479	-0.10666	-0.11185	-0.02533	-0.083923	-0.10605	0.004883	-0.010986	0.015259	-0.76721	-1.04	-0.029755	-0.63568	-0.1712	0.38269	0.12085	-0.11765	-0.02121	-0.002289	-0.002136	0.93948	1.0832	-0.024719	-0.006409
58.281	-0.007935	-0.40665	0.21561	-0.048828	0.003204	0.007324	0.16464	0.014343	-0.033264	-0.10559	-0.047913	0.00061	-0.12177	-0.16769	0.13153	-0.002594	-0.085907	-0.85571	-0.27115	-0.0914	-0.052185	-0.21179	0.28763	0.17334	-0.097198	-0.063934	0.018311	-0.020905	0.48752	0.7074	-0.01709	-0.012207
58.282	0.002747	-0.38879	0.25238	-0.043182	0.001831	0.002594	0.071564	0.022125	-0.064087	-0.10452	0.014343	-0.004883	-0.13138	-0.13733	0.15472	0.006409	-0.18601	-0.67719	-0.21286	-0.14023	0.23315	0.21072	0.22064	0.29831	0.032501	-0.085144	0.089569	-0.049286	0.015106	0.10864	-0.022583	-0.011139
58.283	-0.015564	-0.3952	0.25787	-0.042725	0.015869	0.014954	-0.094147	0.021057	-0.082703	-0.10437	0.006714	0.010071	-0.12253	-0.098877	0.085602	-0.008545	-0.17456	-0.79987	-1.3377	-0.046997	0.1297	0.46402	0.23377	0.34622	0.15778	-0.061646	0.086975	-0.093689	-0.55145	-0.26794	-0.021973	-0.014954
58.284	0.002136	-0.37033	0.26291	-0.043945	0.010223	-0.004883	-0.040436	0.018616	-0.097504	-0.11078	-0.014648	-0.00412	-0.11704	0	0.04425	-0.015411	-0.097961	-0.95367	-2.207	0.043488	0.40955	0.30701	0.21393	0.37155	0.1532	-0.015717	0.096741	-0.024567	-0.67734	-0.28854	-0.01709	-0.012512
58.285	0.007019	-0.33859	0.27832	-0.055084	0.00946	0.006409	0.065765	0.025482	-0.085144	-0.11185	-0.013428	-0.006104	-0.13596	-0.019073	0.12482	-0.023804	-0.030823	-0.79804	-1.7293	0.017242	0.26367	-0.001373	0.2626	0.1976	0.093079	0.007782	0.1059	-0.065613	0.44922	-0.19363	-0.016327	-0.013733
58.286	-0.010986	-0.38437	0.27145	-0.003204	0.022583	0.00824	0.12222	0.023499	-0.083618	-0.10513	0.006561	0.006714	-0.14526	0.008545	0.17975	-0.018158	0.028687	-0.79315	-1.3095	-0.099792	0.041504	0.10056	0.30563	0.015259	0.028076	0.089569	0.067139	-0.11047	0.89722	-0.10468	-0.022583	-0.007935
58.287	-0.005035	-0.34653	0.27313	0.026093	0.015869	0.004272	0.094757	0.018921	-0.059814	-0.11322	0.035858	0.010529	-0.11292	0.008392	0.18356	-0.011444	0.055237	-0.9552	-0.74905	-0.066071	-0.10742	0.4129	0.34973	0.042725	-0.009308	0.006714	0.026855	-0.19714	0.18601	-0.02121	-0.019836	-0.012665
58.288	0.005493	-0.27786	0.27374	0.029449	0.017242	0.007172	-0.019226	0.011749	-0.017242	-0.098267	0.064697	0.011292	-0.10605	0.007935	0.17761	0.003662	0.070801	-0.80429	-0.8548	0.006561	-0.17425	0.25971	0.34973	-0.032196	-0.026703	-0.11154	0.009155	-0.55145	-0.46707	0.14771	-0.018311	-0.013123
58.289	0.007019	-0.16464	0.26123	-0.003052	0.034027	-0.006866	-0.16159	0.017242	-0.028381	-0.06134	0.033112	0.009308	-0.13733	-0.014191	0.15533	-0.009308	0.078735	-0.89874	-1.3579	0.022736	0.21072	0.086517	0.31113	-0.027924	-0.01358	-0.084991	-0.012054	-0.10208	-0.7428	-0.13321	-0.018616	-0.019379
58.29	-0.006714	-0.071411	0.24735	-0.01297	0.017242	0.009308	-0.12985	0.01358	-0.026398	-0.063171	0.082092	0.003967	-0.13916	0.062561	0.03952	-0.006104	0.11734	-0.98862	-1.5703	0.031738	0.44876	-0.27878	0.31326	-0.12466	-0.034332	-0.00946	0.00061	0.048218	-0.43182	-0.67856	-0.020599	-0.031128
58.291	-0.00351	0.053864	0.25116	0.014954	0.016174	0.016479	-0.1149	0.018463	-0.031128	-0.062256	0.16571	0.007019	-0.12192	0.10162	-0.006409	-0.005951	0.062866	-1.2558	-0.94147	0.00412	0.25833	-0.45609	0.30182	-0.099792	-0.08667	0.11124	0.019531	0.49713	-0.23056	-0.48798	-0.016632	-0.033417
58.292	-0.005035	0.089722	0.24048	0.018005	0.016632	0.005035	-0.04425	0.010834	-0.038605	-0.055695	0.056152	0.00824	-0.092163	0.06073	0.059509	-0.005035	-0.12207	-1.5909	-1.8518	0.027466	-0.33875	-0.036316	0.27145	0.12497	-0.063629	0.13138	0.048523	0.47333	0.087891	-0.4744	-0.019836	-0.039063
58.293	-0.001221	0.13336	0.24368	0.000916	0.011292	0.003204	0.00946	0.005951	-0.037689	-0.036926	0.025482	0.011444	-0.038147	0.054016	0.03891	-0.016785	-0.1535	-1.5001	-1.8835	0.089417	-0.34668	0.31235	0.18295	0.31464	-0.020447	0.046844	0.074615	0.14114	0.11566	0.09552	-0.016327	-0.027466
58.294	-0.00824	0.16861	0.224	-0.011444	0.013123	0.009155	0.049591	0.007324	-0.04303	-0.018768	-0.048981	0.012665	-0.032959	0.10346	0.086975	-0.027313	-0.11215	-1.3391	-1.6045	0.014038	-0.18127	0.42633	0.1532	0.28503	-0.024872	0.043488	0.074768	0.027771	-0.015869	0.65887	-0.016174	-0.016785
58.295	-0.013733	0.22446	0.23499	0.029144	0.018768	0.000763	0.078278	0.001373	-0.049286	-0.012512	-0.032806	0.005341	-0.050507	0.11917	0.34439	-0.031128	-0.089417	-1.2578	-1.5907	-0.09079	0.072479	0.38223	0.21149	0.24979	0.010986	0.02655	0.050507	0.009613	-0.012054	0.93628	-0.018005	-0.019226
58.296	-0.016022	0.27145	0.21744	0.049591	0.011902	-0.001831	0.13504	0.007629	-0.052643	-0.01236	0.027924	0.005798	-0.06958	0.15182	-0.002747	-0.016632	-0.047302	-1.3216	-1.5724	-0.068665	0.17654	0.032501	0.23636	0.11383	0.02182	0.001678	0.070648	-0.059967	-0.064545	0.49439	-0.020752	-0.019379
58.297	-0.016479	0.31235	0.19501	0.018158	0.021057	-0.008392	0.18707	0.013733	-0.045929	-0.017548	0.12528	0.019073	-0.097656	0.18036	-0.13733	-0.00885	-0.001526	-1.1682	-1.3998	0.028229	0.071869	-0.16327	0.31479	-0.11795	-0.030212	-0.007172	0.075989	0.03067	-0.069275	0.19409	-0.012817	-0.025482
58.298	-0.013733	0.37979	0.16083	-0.026855	0.019836	-0.016479	0.19119	0.007782	-0.038757	0.027618	0.21316	0.006561	-0.11505	0.20538	-0.040741	-0.028992	0.024109	-0.98175	-1.7375	0.13901	0.007629	-0.23789	0.20538	-0.10803	-0.025635	-0.001221	0.095825	0.007935	-0.093842	-0.003662	-0.012817	-0.019684
58.299	-0.000153	0.38727	0.18494	0.005951	0.022736	-0.02594	0.22568	0.010681	-0.039368	0.003357	0.066376	0.009155	-0.11078	0.25543	0.63248	-0.027161	0.037079	-0.91751	-1.5929	0.14877	0.17166	-0.13641	0.048065	-0.067902	0.053711	0.00824	0.087585	-0.050964	-0.072479	-0.078583	-0.016174	-0.01709
58.3	-0.004425	0.44098	0.19745	0.039215	0.02533	-0.023804	0.224	0.01297	-0.04776	-0.037079	-0.11643	0.016785	-0.049591	0.24262	-0.037231	-0.011749	0.059052	-0.65765	-1.2068	0.060272	0.21896	-0.15808	0.060883	-0.12253	0.022583	0.005646	0.09903	-0.077667	-0.015411	-0.027771	-0.00824	-0.016327
58.301	0.003052	0.43793	0.14404	0.01709	0.013733	-0.031433	0.24597	0.016022	-0.042725	-0.040283	-0.28473	0.007782	0.008392	0.22217	-0.16632	-0.027008	0.068512	-0.38605	-1.017	-0.072327	0.10178	-0.40558	0.1442	-0.15671	-0.039978	-0.013275	0.20447	-0.047607	-0.039063	-0.046082	-0.00885	-0.017548
58.302	-0.011292	0.48675	0.09491	-0.02594	0.017853	-0.030365	0.27374	0.015259	-0.036469	-0.007019	-0.052795	0.014801	-0.047607	0.15595	-0.29511	-0.041199	0.042267	-0.085602	-0.97626	-0.28137	-0.25681	-0.43594	0.21637	0.12253	-0.052185	-0.081024	0.24857	-0.051422	-0.05722	0.04364	-0.012512	-0.014191
58.303	0.001526	0.52307	0.069885	-0.000153	0.022583	-0.035248	0.31876	0.019379	-0.025635	0.04303	0.027008	0.021362	-0.087128	0.056152	-0.40512	-0.040283	0.016785	0.18875	-0.89981	-0.29007	-0.51422	-0.33005	0.27802	0.29175	-0.067139	-0.03479	0.16968	-0.050354	-0.11688	0.18539	-0.013428	-0.00824
